<svg xmlns="http://www.w3.org/2000/svg" width="16.904" height="17.148" viewBox="0 0 16.904 17.148">
    <defs>
        <style>
            .cls-1{fill:#66768b}.cls-3{fill:#fff}
        </style>
    </defs>
    <g id="accidents" transform="translate(-89.386 -43.607)">
        <rect id="Rectangle_106" width="15.856" height="6.937" class="cls-1" rx="1.479" transform="rotate(-36.011 127.116 -110.716)"/>
        <path id="Path_343" fill="none" stroke="#66768b" stroke-miterlimit="10.001" stroke-width="2.191px" d="M94.485 57.223l9.619-6.991 1.035 3.727a2.486 2.486 0 0 1-1.01 2.38l-3.843 2.793a2.489 2.489 0 0 1-2.577.226z"/>
        <path id="Rectangle_107" d="M101.191 46.223l-2.406 1.748-1.456-2a1.486 1.486 0 0 1 .328-2.076 1.486 1.486 0 0 1 2.076.328l1.457 2z" class="cls-1"/>
        <path id="Rectangle_108" d="M93.977 51.466l-2.4 1.748-1.457-2a1.486 1.486 0 0 1 .329-2.075 1.486 1.486 0 0 1 2.076.328l1.457 2z" class="cls-1"/>
        <circle id="Ellipse_59" cx="1.25" cy="1.25" r="1.25" class="cls-3" transform="translate(99.394 48.434)"/>
        <circle id="Ellipse_60" cx="1.25" cy="1.25" r="1.25" class="cls-3" transform="translate(93.783 52.513)"/>
    </g>
</svg>
