<svg xmlns="http://www.w3.org/2000/svg" width="48.261" height="32.277" viewBox="0 0 48.261 32.277">
    <defs>
        <style>
            .cls-1{fill:#2d709f}
        </style>
    </defs>
    <g id="total" transform="translate(-99 -47)">
        <path id="Path_363" d="M137.028 152.5a3.113 3.113 0 1 0 .022 6.225h.023a3.113 3.113 0 1 0-.046-6.225zm.906 3.074a.986.986 0 0 1-.244.691.9.9 0 0 1-.632.308h-.007a.922.922 0 1 1-.007-1.844c0-.154 0-.154.007-.154a.912.912 0 0 1 .629.306.939.939 0 0 1 .254.674z" class="cls-1" transform="translate(-27.558 -89.283)"/>
        <path id="Path_365" d="M341.507 151h-.023a3.074 3.074 0 1 0 .022 6.148h.023a3.139 3.139 0 0 0 3.129-3.095 3.24 3.24 0 0 0-3.151-3.053zm.006 4h-.006a.922.922 0 1 1-.007-1.844h.007a.922.922 0 0 1 .007 1.844z" class="cls-1" transform="translate(-204.623 -88.015)"/>
        <path id="Path_366" d="M146.969 58.862a1.076 1.076 0 0 0 .29-.8 7.547 7.547 0 0 0-.377-1.863 3.672 3.672 0 0 0-3.63-2.286h-.038c-.88 0-2.4.043-3.261.046l-1.481-2.636c-1.156-2.035-2.846-4.323-5.679-4.323h-.038l-19.253.11c-2.317.017-4.347 1.588-5.72 4.454l-1.5 2.7c-.861 0-2.409.009-3.3.015a3.658 3.658 0 0 0-3.634 2.308A7.424 7.424 0 0 0 99 58.422a1.146 1.146 0 0 0 .3.823 1.107 1.107 0 0 0 .773.358h.009l1.5-.044a5.093 5.093 0 0 0-1.156 3.331.957.957 0 0 0 .01.127l1.194 8.9a3.011 3.011 0 0 0 2.211 2.8l.019 2.562a2.019 2.019 0 0 0 2.043 2h.015l2.937-.008a2.031 2.031 0 0 0 2.028-2.047l-.018-2.445 24.778-.182.018 2.447a2.09 2.09 0 0 0 .609 1.466 2.055 2.055 0 0 0 1.433.615h.015l2.936-.048A2.056 2.056 0 0 0 142.681 77l-.019-2.581a3.032 3.032 0 0 0 2.119-2.825l1.112-8.916a1.087 1.087 0 0 0 .008-.142 5.09 5.09 0 0 0-1.243-3.326l1.536-.012a1.076 1.076 0 0 0 .775-.34zm-37.289-6.3l.031-.059c.579-1.216 1.843-3.228 3.807-3.242l19.254-.11h.021c1.363 0 2.5.952 3.8 3.241l2.957 5.341-2.507.01a5.085 5.085 0 0 0-9.994.067l-20.365.15zm25.145 5.19l-5.551.041a2.93 2.93 0 0 1 5.551-.041zm-33.467-.374l.04-.13a1.632 1.632 0 0 1 1.6-.824l2.084-.013-.521.939zm4.652 19.774l-.017-2.338 2.719-.02.017 2.338zm31.8-.234l-.017-2.338 2.719-.02.017 2.338zm4.829-5.525a1.087 1.087 0 0 0-.008.141.86.86 0 0 1-.852.862l-37.135.272h-.006a.861.861 0 0 1-.858-.849 1.067 1.067 0 0 0-.01-.135l-1.193-8.884a2.56 2.56 0 0 1 2.163-2.708c.037 0 .075-.023.113-.023h.008l36.485-.212c.005 0 .011.058.016.058h.008a2.178 2.178 0 0 1 1.662.739 2.937 2.937 0 0 1 .716 1.854zm-.977-14.308l-.522-.945c.735 0 1.539-.007 2.091-.011a1.63 1.63 0 0 1 1.616.8l.043.131z" class="cls-1"/>
    </g>
</svg>
