<svg xmlns="http://www.w3.org/2000/svg" width="12" height="15" viewBox="0 0 12 15">
    <path fill="#fff" d="M-50.307 42.443h-6a1.5 1.5 0 0 0-1.5 1.5v12a1.5 1.5 0 0 0 1.5 1.5h9a1.5 1.5 0 0 0 1.5-1.5v-9zm-.157 5.975a2.064 2.064 0 0 0-.184-.127 2.372 2.372 0 0 0-.262-.143 2.195 2.195 0 0 0-.323-.112 1.727 1.727 0 0 0-.413-.05 1.024 1.024 0 0 0-.574.171.412.412 0 0 0-.158.489.3.3 0 0 0 .075.1 2.057 2.057 0 0 0 .178.15 1.517 1.517 0 0 0 .229.126c.126.058.223.1.3.131s.187.076.339.134c.175.065.311.118.406.156s.225.1.389.18a3.605 3.605 0 0 1 .4.226 3.424 3.424 0 0 1 .336.271 1.523 1.523 0 0 1 .31.371v.008a1.959 1.959 0 0 1 .172.431 1.828 1.828 0 0 1 .07.533 2.114 2.114 0 0 1-.556 1.465 2.38 2.38 0 0 1-1.21.712v.651a.411.411 0 0 1-.4.408h-.672a.414.414 0 0 1-.408-.405v-.655a3.65 3.65 0 0 1-.462-.129 3.3 3.3 0 0 1-.933-.492 2.784 2.784 0 0 1-.246-.2 1.184 1.184 0 0 1-.112-.115.394.394 0 0 1-.012-.517l.5-.661a.41.41 0 0 1 .3-.157.361.361 0 0 1 .324.139 2.342 2.342 0 0 0 1.066.538 1.94 1.94 0 0 0 .329.033.943.943 0 0 0 .543-.168.437.437 0 0 0 .191-.384.256.256 0 0 0-.037-.141.665.665 0 0 0-.122-.156 1.178 1.178 0 0 0-.225-.14c-.134-.068-.241-.119-.325-.158s-.208-.089-.378-.153l-.306-.126c-.076-.032-.178-.075-.308-.134s-.246-.117-.329-.164-.18-.107-.295-.185a1.914 1.914 0 0 1-.3-.237 2.972 2.972 0 0 1-.238-.267 1.427 1.427 0 0 1-.205-.343 2.254 2.254 0 0 1-.115-.373 1.982 1.982 0 0 1-.048-.439 1.92 1.92 0 0 1 .556-1.367 2.517 2.517 0 0 1 1.186-.69v-.685a.4.4 0 0 1 .126-.293.5.5 0 0 1 .295-.115h.66a.412.412 0 0 1 .3.129.4.4 0 0 1 .106.287v.641a3.1 3.1 0 0 1 .371.093 3.486 3.486 0 0 1 .46.177 2.562 2.562 0 0 1 .349.206c.111.078.181.131.215.161s.063.057.087.082a.38.38 0 0 1 .059.51l-.388.7a.378.378 0 0 1-.318.207.39.39 0 0 1-.31-.094" transform="translate(57.807 -42.443)"/>
</svg>
