<svg xmlns="http://www.w3.org/2000/svg" width="90.737" height="131.831" viewBox="0 0 90.737 131.831">
    <defs>
        <style>
            .cls-1{fill:none;stroke:#2d709f;stroke-linecap:round;stroke-linejoin:round;stroke-width:4px}
        </style>
    </defs>
    <g id="success" transform="translate(-128.549 1.725)">
        <path id="Path_466" d="M149.179 59.458L146.09 10.25a9.39 9.39 0 0 1 8.337-9.91 9.39 9.39 0 0 1 10.261 7.576l8.585 45.071" class="cls-1" transform="translate(9.494)"/>
        <path id="Path_467" d="M183.954 67.155l10.5-55.261a9.447 9.447 0 0 0-7.268-10.814 9.443 9.443 0 0 0-11 6.622L163 52.284" class="cls-1" transform="translate(19.845 .361)"/>
        <path id="Path_468" d="M201.522 65.607l-28.663-6.612a9.813 9.813 0 0 1-7.368-11.718 9.812 9.812 0 0 1 11.729-7.417l28.661 6.453a9.816 9.816 0 0 1 7.655 9.376v.158s1.7 48.2-34.478 48.2c-32.934 0-41.23-18.822-42.455-35.572" class="cls-1" transform="translate(3.705 24.059)"/>
        <path id="Path_469" d="M161.5 74.9c0-10.68 11.989-20.85 22.563-19.34" class="cls-1" transform="translate(18.931 33.716)"/>
        <path id="Path_470" d="M168.4 60.8a8.643 8.643 0 0 1-3.368 6.4l-.031.024a8.659 8.659 0 0 1-12.145-1.584l-14.779-19.209a8.66 8.66 0 0 1 1.583-12.145l.031-.024a8.659 8.659 0 0 1 12.145 1.584l12.708 16.516" class="cls-1" transform="translate(3.505 19.684)"/>
        <path id="Path_471" d="M162.5 62.786a8.66 8.66 0 0 1 0 12.248l-.026.027a8.663 8.663 0 0 1-12.248 0l-17.14-17.142a8.66 8.66 0 0 1 0-12.248l.027-.027a8.663 8.663 0 0 1 12.248 0" class="cls-1" transform="translate(0 26.193)"/>
    </g>
</svg>
