<svg xmlns="http://www.w3.org/2000/svg" width="18.363" height="17.681" viewBox="0 0 18.363 17.681">
    <defs>
        <style>
            .cls-1{fill:#fff}
        </style>
    </defs>
    <g id="fleet" transform="translate(-103.689 -127.363)">
        <path id="Path_536" d="M116.815 135.857l-1.011-2.725-.051-.113a3.188 3.188 0 0 0-2.833-1.718h-.01l-4.238-.007h-.027a3.187 3.187 0 0 0-2.829 1.706l-1.069 2.832a1.322 1.322 0 0 0-1.052 1.291l-.005 3.555a1.321 1.321 0 0 0 1.317 1.322h.451v1.336a1.327 1.327 0 0 0 1.326 1.329 1.328 1.328 0 0 0 1.329-1.325v-1.336l5.307.009v1.323a1.328 1.328 0 0 0 2.656.005v-1.323h.452a1.321 1.321 0 0 0 1.324-1.318l.005-3.555a1.32 1.32 0 0 0-1.042-1.288zm-9.24-1.989a1.235 1.235 0 0 1 1.076-.617h.011l4.249.008a1.24 1.24 0 0 1 1.08.621l.687 1.85-7.8-.013zm1 5.7a1.117 1.117 0 1 1-.244-1.561 1.117 1.117 0 0 1 .247 1.561zm6.2.01a1.117 1.117 0 1 1-.244-1.559 1.117 1.117 0 0 1 .244 1.559z" class="cls-1" transform="translate(0 .374)"/>
        <path id="Path_538" d="M120.5 131.926l-1.012-2.725-.05-.113a3.189 3.189 0 0 0-2.834-1.718h-.01l-4.238-.008h-.027a3.183 3.183 0 0 0-2.828 1.709l-.459 1.214h2.085l.131-.348a1.233 1.233 0 0 1 1.078-.617h.01l4.249.007a1.242 1.242 0 0 1 1.079.621l.688 1.851h-1.954a3.4 3.4 0 0 1 .226.382l.054.124.581 1.624a1.1 1.1 0 0 1 .942.161 1.117 1.117 0 0 1 .244 1.561c-.01.013-.025.02-.036.032a1.449 1.449 0 0 1 .445 1.038l-.007 3.905c0 .012-.005.021-.005.032a1.315 1.315 0 0 0 .9-1.24v-1.323h.453a1.321 1.321 0 0 0 1.323-1.32l.007-3.554a1.321 1.321 0 0 0-1.035-1.295z" class="cls-1" transform="translate(.509)"/>
    </g>
</svg>
