<svg xmlns="http://www.w3.org/2000/svg" width="16" height="16" viewBox="0 0 16 16">
    <g transform="translate(-458 -818)">
        <circle cx="8" cy="8" r="8" fill="#357daf" transform="translate(458 818)"/>
        <path fill="#2c354f" d="M-3.024-5.319h2.28L-.876-.395h-2.28zm1.14-1.905a1.443 1.443 0 0 1-1.008-.348 1.119 1.119 0 0 1-.384-.864 1.119 1.119 0 0 1 .384-.864 1.443 1.443 0 0 1 1.008-.348 1.492 1.492 0 0 1 1.008.33 1.065 1.065 0 0 1 .384.846 1.164 1.164 0 0 1-.384.894 1.428 1.428 0 0 1-1.008.354z" transform="translate(468 831)"/>
    </g>
</svg>
