<svg xmlns="http://www.w3.org/2000/svg" width="12" height="15" viewBox="0 0 12 15">
    <defs>
        <style>
            .cls-1{fill:#357daf}
        </style>
    </defs>
    <g id="invoices" transform="translate(-6 -3)">
        <path id="Path_343" d="M13.5 3h-6A1.5 1.5 0 0 0 6 4.5v12A1.5 1.5 0 0 0 7.5 18h9a1.5 1.5 0 0 0 1.5-1.5v-9z" class="cls-1"/>
        <path id="Path_344" d="M21 3v4.5h4.5" class="cls-1" transform="translate(-7.5)"/>
        <g id="dollar-symbol" transform="translate(-112.828 6.167)">
            <path id="Path_386" fill="#2c354f" d="M127.151 5.384a1.783 1.783 0 0 0-.151-.377 1.277 1.277 0 0 0-.262-.313 3.124 3.124 0 0 0-.306-.247 2.983 2.983 0 0 0-.373-.21q-.237-.116-.375-.173t-.4-.155q-.232-.089-.345-.136t-.3-.133a1.739 1.739 0 0 1-.276-.153 2.169 2.169 0 0 1-.195-.163.555.555 0 0 1-.146-.2.664.664 0 0 1 .254-.785 1.283 1.283 0 0 1 .765-.212 1.645 1.645 0 0 1 .422.057 2.207 2.207 0 0 1 .368.128 2.555 2.555 0 0 1 .289.158q.136.086.192.131c.038.03.062.049.072.059a.157.157 0 0 0 .133.035.135.135 0 0 0 .114-.079l.4-.721A.143.143 0 0 0 127 1.7c-.02-.02-.044-.043-.074-.069s-.094-.074-.192-.143a2.382 2.382 0 0 0-.313-.185 3.169 3.169 0 0 0-.429-.165 2.738 2.738 0 0 0-.545-.114V.158a.152.152 0 0 0-.156-.158h-.666a.152.152 0 0 0-.111.047.152.152 0 0 0-.047.111v.888a2.258 2.258 0 0 0-1.258.661 1.688 1.688 0 0 0-.484 1.194 1.714 1.714 0 0 0 .042.385 1.97 1.97 0 0 0 .1.328 1.208 1.208 0 0 0 .175.286 3.065 3.065 0 0 0 .215.242 1.743 1.743 0 0 0 .264.21q.163.109.279.175t.308.153q.192.086.3.131l.3.123q.266.1.395.16t.326.158a1.352 1.352 0 0 1 .289.185.928.928 0 0 1 .165.207.5.5 0 0 1 .074.262.691.691 0 0 1-.3.6 1.2 1.2 0 0 1-.7.212 1.724 1.724 0 0 1-.365-.039 2.578 2.578 0 0 1-1.2-.617l-.01-.01a.122.122 0 0 0-.118-.044.153.153 0 0 0-.114.059l-.508.666a.15.15 0 0 0 .01.2q.025.03.086.089a2.854 2.854 0 0 0 .23.185 3.029 3.029 0 0 0 .866.456 3.116 3.116 0 0 0 .629.153v.864a.16.16 0 0 0 .158.158h.666a.152.152 0 0 0 .158-.158v-.858a2.119 2.119 0 0 0 1.276-.674 1.878 1.878 0 0 0 .491-1.3 1.622 1.622 0 0 0-.061-.464z"/>
        </g>
    </g>
</svg>
