<svg xmlns="http://www.w3.org/2000/svg" width="14" height="14.345" viewBox="0 0 14 14.345">
    <defs>
        <style>
            .cls-1{fill:none;stroke:#357daf;stroke-linecap:round;stroke-linejoin:round;stroke-width:2px}.cls-2{fill:#357daf}
        </style>
    </defs>
    <g id="plan" transform="translate(-4.405 -2.622)">
        <path id="Path_377" d="M24 3v2.411" class="cls-1" transform="translate(-9.414 .622)"/>
        <path id="Path_378" d="M12 3v2.411" class="cls-1" transform="translate(-3.615 .622)"/>
        <path id="Rectangle_112" d="M2 0h10a2 2 0 0 1 2 2v2H0V2a2 2 0 0 1 2-2z" class="cls-2" transform="translate(4.405 4.968)"/>
        <path id="Rectangle_113" d="M0 0h14v6a2 2 0 0 1-2 2H2a2 2 0 0 1-2-2V0z" class="cls-2" transform="translate(4.405 8.968)"/>
        <path id="Path_392" fill="#2c354f" d="M143.861 61.528a1.3 1.3 0 0 1-.292-.028 2.129 2.129 0 0 1-.94-.451.338.338 0 0 0-.307-.126.389.389 0 0 0-.283.141l-.446.559a.338.338 0 0 0 0 .465 1 1 0 0 0 .106.1 2.426 2.426 0 0 0 .221.17 2.982 2.982 0 0 0 .838.423 3.349 3.349 0 0 0 .4.107v.545a.375.375 0 0 0 .383.362h.6a.382.382 0 0 0 .256-.1.36.36 0 0 0 .122-.27v-.547a2.155 2.155 0 0 0 1.076-.608 1.771 1.771 0 0 0 .5-1.263 1.555 1.555 0 0 0-.066-.461 1.8 1.8 0 0 0-.164-.375 1.348 1.348 0 0 0-.28-.321 3.5 3.5 0 0 0-.3-.231 3.175 3.175 0 0 0-.36-.193c-.146-.068-.262-.118-.346-.153s-.207-.079-.367-.136l-.306-.113c-.066-.026-.151-.062-.261-.111a1.233 1.233 0 0 1-.2-.105 1.444 1.444 0 0 1-.158-.126.245.245 0 0 1-.064-.082.326.326 0 0 1 .134-.4.955.955 0 0 1 .507-.143 1.477 1.477 0 0 1 .361.043 1.623 1.623 0 0 1 .285.094 2.11 2.11 0 0 1 .23.119c.072.044.124.078.152.1l.056.045a.368.368 0 0 0 .293.084.354.354 0 0 0 .3-.185l.346-.6a.341.341 0 0 0-.051-.453l-.08-.07c-.03-.024-.092-.071-.19-.136a2.452 2.452 0 0 0-.318-.178 3.322 3.322 0 0 0-.411-.151 3.067 3.067 0 0 0-.319-.077v-.531a.373.373 0 0 0-.38-.374h-.6a.389.389 0 0 0-.27.107.36.36 0 0 0-.112.258v.572a2.3 2.3 0 0 0-1.055.588 1.646 1.646 0 0 0-.5 1.18 1.705 1.705 0 0 0 .044.379 1.975 1.975 0 0 0 .108.32 1.219 1.219 0 0 0 .188.295 2.642 2.642 0 0 0 .213.229 1.734 1.734 0 0 0 .269.206c.1.066.19.117.261.154a3.241 3.241 0 0 0 .3.142c.12.052.215.091.28.115l.275.107c.155.057.269.1.342.132s.167.075.285.131a.983.983 0 0 1 .2.118.543.543 0 0 1 .107.129.2.2 0 0 1 .031.113.356.356 0 0 1-.167.313.859.859 0 0 1-.476.153z" transform="translate(-132.133 -48.831)"/>
    </g>
</svg>
