<?xml version="1.0" encoding="utf-8"?>
<!-- Generator: Adobe Illustrator 25.0.1, SVG Export Plug-In . SVG Version: 6.00 Build 0)  -->
<svg version="1.1" id="Layer_1" xmlns="http://www.w3.org/2000/svg" xmlns:xlink="http://www.w3.org/1999/xlink" x="0px" y="0px"
	 viewBox="0 0 27 27" style="enable-background:new 0 0 27 27;" xml:space="preserve">
<style type="text/css">
	.st0{fill:#2D709F;}
</style>
<path class="st0" d="M23.8,7.1c0.3-0.5,0.5-1,0.5-1.6c0-1.7-1.4-3-3-3c-0.6,0-1.1,0.2-1.6,0.5c-2-1.2-4.2-1.8-6.5-1.8
	C6.2,1.1,0.6,6.7,0.6,13.6s5.6,12.5,12.5,12.5c6.9,0,12.5-5.6,12.5-12.5C25.6,11.3,25,9.1,23.8,7.1z M21.3,4.5c0.6,0,1,0.5,1,1
	s-0.5,1-1,1s-1-0.5-1-1S20.7,4.5,21.3,4.5z M13.1,24.1c-5.8,0-10.5-4.7-10.5-10.5c0-5.8,4.7-10.5,10.5-10.5c1.9,0,3.6,0.5,5.2,1.4
	c-0.1,0.3-0.2,0.6-0.2,0.9c0,0.5,0.1,0.9,0.3,1.3l-4.1,4.1c-0.4-0.2-0.8-0.3-1.3-0.3c-1.7,0-3,1.4-3,3s1.4,3,3,3s3-1.4,3-3
	c0-0.5-0.1-0.9-0.3-1.3l4.1-4.1c0.4,0.2,0.8,0.3,1.3,0.3c0.3,0,0.6-0.1,0.9-0.2c0.9,1.6,1.4,3.4,1.4,5.2
	C23.6,19.4,18.9,24.1,13.1,24.1z M14.1,13.6c0,0.6-0.5,1-1,1s-1-0.5-1-1s0.5-1,1-1S14.1,13,14.1,13.6z"/>
</svg>
