<svg xmlns="http://www.w3.org/2000/svg" width="18.924" height="16" viewBox="0 0 18.924 16">
    <defs>
        <style>
            .cls-1{fill:#357daf}
        </style>
    </defs>
    <g id="subscription" transform="translate(-134.538 -52)">
        <path id="Path_387" d="M143.936 61.995a1.282 1.282 0 0 1-.3-.03 2.156 2.156 0 0 1-.97-.488.341.341 0 0 0-.317-.136.4.4 0 0 0-.292.153l-.46.6a.379.379 0 0 0 0 .5 1.055 1.055 0 0 0 .109.11 2.518 2.518 0 0 0 .228.184 3.025 3.025 0 0 0 .865.458 3.33 3.33 0 0 0 .414.116v.589a.4.4 0 0 0 .395.392h.62a.384.384 0 0 0 .264-.1.4.4 0 0 0 .126-.292v-.592a2.2 2.2 0 0 0 1.11-.658 1.966 1.966 0 0 0 .519-1.366 1.757 1.757 0 0 0-.068-.5 2 2 0 0 0-.169-.406 1.44 1.44 0 0 0-.289-.347 3.631 3.631 0 0 0-.312-.25 3.23 3.23 0 0 0-.371-.209c-.151-.073-.27-.128-.357-.166s-.214-.085-.379-.147l-.316-.122c-.071-.028-.156-.067-.269-.12a1.254 1.254 0 0 1-.206-.114 1.506 1.506 0 0 1-.163-.136.263.263 0 0 1-.066-.089.361.361 0 0 1 .138-.428.952.952 0 0 1 .523-.155 1.458 1.458 0 0 1 .372.046 1.621 1.621 0 0 1 .294.1 2.143 2.143 0 0 1 .237.129c.074.048.128.084.157.107l.058.049a.407.407 0 0 0 .611-.109l.357-.646a.382.382 0 0 0-.053-.49l-.083-.076c-.031-.026-.1-.077-.2-.147a2.5 2.5 0 0 0-.328-.193 3.33 3.33 0 0 0-.424-.163 3.042 3.042 0 0 0-.329-.083v-.57a.394.394 0 0 0-.392-.4h-.615a.392.392 0 0 0-.279.116.4.4 0 0 0-.116.279v.619a2.342 2.342 0 0 0-1.089.636 1.823 1.823 0 0 0-.518 1.276 1.93 1.93 0 0 0 .045.41 2.208 2.208 0 0 0 .111.346 1.327 1.327 0 0 0 .194.319 2.81 2.81 0 0 0 .22.248 1.8 1.8 0 0 0 .278.223c.106.071.2.127.269.167a3.281 3.281 0 0 0 .306.154c.124.056.222.1.289.124l.284.116c.16.062.278.11.353.143s.172.081.294.142a1.006 1.006 0 0 1 .2.128.582.582 0 0 1 .11.139.219.219 0 0 1 .032.122.391.391 0 0 1-.172.338.857.857 0 0 1-.48.15z" class="cls-1"/>
        <path id="Path_388" d="M148.4 64.08A6 6 0 0 1 138.09 61h.832a.539.539 0 0 0 .431-.862l-1.922-2.563a.538.538 0 0 0-.862 0l-1.922 2.563a.539.539 0 0 0 .431.862h.991a7.995 7.995 0 0 0 13.8 4.439 1 1 0 1 0-1.469-1.359z" class="cls-1"/>
        <path id="Path_389" d="M152.922 59h-.991a8 8 0 0 0-13.839-4.4 1 1 0 1 0 1.476 1.35A6 6 0 0 1 149.91 59h-.832a.539.539 0 0 0-.431.862l1.922 2.563a.538.538 0 0 0 .862 0l1.922-2.563a.539.539 0 0 0-.431-.862z" class="cls-1"/>
    </g>
</svg>
